<svg width="32" height="32" viewBox="0 0 80 80" xmlns="http://www.w3.org/2000/svg">
  <rect width="80" height="80" rx="18" fill="#534AB7"/>
  <circle cx="40" cy="40" r="7" fill="#ffffff"/>
  <circle cx="18" cy="26" r="5" fill="#EEEDFE"/>
  <circle cx="62" cy="26" r="5" fill="#EEEDFE"/>
  <circle cx="62" cy="54" r="5" fill="#EEEDFE"/>
  <circle cx="18" cy="54" r="5" fill="#EEEDFE"/>
  <circle cx="40" cy="62" r="4" fill="#CECBF6"/>
  <circle cx="40" cy="18" r="4" fill="#CECBF6"/>
  <line x1="40" y1="33" x2="22" y2="29" stroke="#ffffff" stroke-width="1.5" stroke-linecap="round"/>
  <line x1="40" y1="33" x2="58" y2="29" stroke="#ffffff" stroke-width="1.5" stroke-linecap="round"/>
  <line x1="40" y1="47" x2="58" y2="51" stroke="#ffffff" stroke-width="1.5" stroke-linecap="round"/>
  <line x1="40" y1="47" x2="22" y2="51" stroke="#ffffff" stroke-width="1.5" stroke-linecap="round"/>
  <line x1="40" y1="33" x2="40" y2="22" stroke="#CECBF6" stroke-width="1.2" stroke-linecap="round"/>
  <line x1="40" y1="47" x2="40" y2="58" stroke="#CECBF6" stroke-width="1.2" stroke-linecap="round"/>
  <path d="M34 36 Q30 40 34 44" fill="none" stroke="#CECBF6" stroke-width="1.2" stroke-linecap="round"/>
  <path d="M46 36 Q50 40 46 44" fill="none" stroke="#CECBF6" stroke-width="1.2" stroke-linecap="round"/>
</svg>
